<?xml version="1.0" encoding="UTF-8"?>
<svg id="Layer_2" data-name="Layer 2" xmlns="http://www.w3.org/2000/svg" xmlns:xlink="http://www.w3.org/1999/xlink" viewBox="0 0 1989.82 403.94">
  <defs>
    <style>
      .cls-1 {
        fill: #060f14;
      }

      .cls-2 {
        fill: url(#linear-gradient-4);
      }

      .cls-3 {
        fill: url(#linear-gradient-3);
      }

      .cls-4 {
        fill: url(#linear-gradient-2);
      }

      .cls-5 {
        fill: url(#linear-gradient);
      }
    </style>
    <linearGradient id="linear-gradient" x1="57.08" y1="323.28" x2="104.65" y2="323.28" gradientUnits="userSpaceOnUse">
      <stop offset="0" stop-color="#009843"/>
      <stop offset="1" stop-color="#00b163"/>
    </linearGradient>
    <linearGradient id="linear-gradient-2" x1="48.01" y1="201.97" x2="394.45" y2="201.97" xlink:href="#linear-gradient"/>
    <linearGradient id="linear-gradient-3" x1=".45" y1="117.86" x2="48.01" y2="117.86" gradientTransform="translate(141.98 93.09) rotate(89.74)" xlink:href="#linear-gradient"/>
    <linearGradient id="linear-gradient-4" x1="0" y1="270.88" x2="37.46" y2="270.88" xlink:href="#linear-gradient"/>
  </defs>
  <g id="Layer_1-2" data-name="Layer 1">
    <g>
      <g>
        <polygon class="cls-5" points="57.29 299.5 57.08 346.84 104.42 347.06 104.65 299.71 57.29 299.5"/>
        <path class="cls-4" d="M394.45,88.72l-.48,104.96c-.3,66.25-35.28,127.52-92.19,161.5l-81.78,48.76-68.29-41.62.29-62.4-47.35-.22.22-47.35-47.35-.22c-6.32-19.1-9.6-39.36-9.5-60.05l.23-50.43,47.35.22.22-47.35-47.35-.22.22-47.35,28.32-14.26c90.78-45.7,198.31-43.38,287.04,6.18l-165.44,163.92-47.29-47.73-40.35,39.98,87.27,88.08,196.21-194.41Z"/>
        <rect class="cls-3" x=".56" y="94.19" width="47.34" height="47.34" transform="translate(-93.75 141.55) rotate(-89.74)"/>
        <rect class="cls-2" y="252.15" width="37.46" height="37.46"/>
      </g>
      <path class="cls-1" d="M482.05,252.19c2.33,1.52,5.43,3.04,9.29,4.57,3.86,1.53,8.25,2.9,13.19,4.14,4.94,1.24,10.23,2.28,15.88,3.14,5.65.86,11.62,1.28,17.9,1.28,5.92,0,11.04-.43,15.34-1.28,4.31-.86,7.81-2.18,10.5-3.99,2.69-1.81,4.71-3.99,6.06-6.56,1.35-2.57,2.02-5.47,2.02-8.7,0-3.61-.63-6.61-1.88-8.99-1.26-2.38-3.28-4.52-6.06-6.42-2.79-1.9-6.37-3.66-10.77-5.28-4.4-1.61-9.74-3.38-16.02-5.28l-7.54-2.28c-8.98-2.85-16.6-6.18-22.88-9.99-6.28-3.8-11.44-8.18-15.48-13.13-4.04-4.94-6.96-10.51-8.75-16.69-1.8-6.18-2.69-12.98-2.69-20.4,0-9.13,1.7-17.26,5.12-24.4,3.41-7.13,8.34-13.17,14.81-18.12,6.46-4.94,14.36-8.75,23.69-11.41,9.33-2.66,19.83-3.99,31.5-3.99,13.46,0,24.59.86,33.38,2.57,8.79,1.71,16.15,3.81,22.07,6.28v40.52c-4.13-1.52-8.39-2.8-12.79-3.85-4.4-1.04-8.88-1.9-13.46-2.57-4.58-.66-9.11-1.19-13.59-1.57-4.49-.38-8.61-.57-12.38-.57-10.59,0-18.44,1.43-23.56,4.28-5.11,2.85-7.67,7.23-7.67,13.13,0,3.24.76,5.9,2.29,7.99,1.52,2.1,3.9,4.04,7.13,5.85,3.23,1.81,7.49,3.66,12.79,5.56,5.29,1.9,11.62,4.19,18.98,6.85l8.35,2.57c9.33,3.04,17,6.66,23.02,10.84,6.01,4.19,10.72,8.7,14.13,13.55,3.41,4.85,5.74,10.09,7,15.69,1.25,5.61,1.88,11.66,1.88,18.12,0,9.89-1.88,18.65-5.65,26.25-3.77,7.61-9.06,14.08-15.88,19.4-6.82,5.33-15.12,9.37-24.9,12.13-9.78,2.76-20.77,4.14-32.98,4.14-12.92,0-24.41-1.1-34.46-3.28-10.05-2.18-19.02-5.09-26.92-8.7v-41.38Z"/>
      <path class="cls-1" d="M680.31,126.64c-4.4,3.81-10.63,5.71-18.71,5.71s-14.27-1.9-18.58-5.71c-4.31-3.8-6.46-9.22-6.46-16.26s2.19-12.17,6.6-15.98c4.4-3.8,10.54-5.71,18.44-5.71s14.31,1.85,18.71,5.56c4.4,3.71,6.6,9.09,6.6,16.12s-2.2,12.46-6.6,16.26ZM682.87,301.84h-42.26v-145.53h42.26v145.53Z"/>
      <path class="cls-1" d="M819.09,156.31h40.65v136.68c0,13.88-2.15,25.35-6.46,34.39-4.31,9.03-10.32,16.31-18.04,21.83-7.72,5.52-16.87,9.42-27.46,11.7-10.59,2.28-21.9,3.42-33.92,3.42-5.56,0-11.22-.24-16.96-.71-5.75-.48-11.17-1.1-16.29-1.85-5.11-.76-9.87-1.62-14.27-2.57-4.4-.95-8.12-2-11.17-3.14v-37.38c2.51,1.14,5.52,2.28,9.02,3.42,3.5,1.14,7.54,2.19,12.11,3.14,4.58.95,9.56,1.71,14.94,2.28,5.38.57,11.04.86,16.96.86,9.51,0,17.45-.81,23.82-2.43,6.37-1.62,11.48-4.09,15.34-7.42,3.86-3.33,6.6-7.37,8.21-12.13,1.62-4.75,2.42-10.27,2.42-16.55v-12.27h-.54c-2.51,3.42-5.43,6.66-8.75,9.7-3.32,3.05-7.09,5.71-11.31,7.99-4.22,2.28-8.8,3.95-13.73,4.99-4.94,1.05-10.01,1.57-15.21,1.57-10.95,0-20.69-1.43-29.21-4.28-8.53-2.85-15.75-7.18-21.67-12.98-5.92-5.8-10.41-13.17-13.46-22.12-3.05-8.94-4.58-19.4-4.58-31.39s1.43-23.64,4.31-33.24c2.87-9.6,7.13-17.69,12.79-24.25,5.65-6.56,12.79-11.51,21.4-14.84,8.61-3.33,18.93-4.99,30.96-4.99,5.92,0,11.39.57,16.42,1.71,5.02,1.14,9.65,2.81,13.86,4.99,4.21,2.19,7.98,4.66,11.31,7.42,3.32,2.76,5.96,5.85,7.94,9.27h.54v-20.83ZM764.31,190.7c-4.58,1.62-8.35,4.04-11.31,7.28-2.96,3.24-5.21,7.33-6.73,12.27-1.53,4.95-2.29,10.84-2.29,17.69s.81,12.41,2.42,17.26c1.61,4.85,3.99,8.94,7.13,12.27,3.14,3.33,6.95,5.81,11.44,7.42,4.48,1.62,9.6,2.43,15.34,2.43,6.1,0,11.48-.95,16.15-2.85,4.66-1.9,8.57-4.52,11.71-7.85,3.14-3.33,5.56-7.42,7.27-12.27,1.7-4.85,2.56-10.22,2.56-16.12s-.81-11.6-2.42-16.55c-1.61-4.94-3.95-9.13-7-12.56-3.05-3.42-6.96-6.09-11.71-7.99-4.76-1.9-10.36-2.85-16.82-2.85-5.92,0-11.17.81-15.75,2.43Z"/>
      <path class="cls-1" d="M1031.48,301.84h-41.46v-75.33c0-7.04-.54-12.93-1.61-17.69-1.08-4.75-2.74-8.56-4.98-11.41-2.25-2.85-5.25-4.85-9.02-5.99-3.77-1.14-8.44-1.71-14-1.71-12.21,0-21.09,3.76-26.65,11.27-5.57,7.52-8.35,18.69-8.35,33.53v67.34h-42v-145.53h42v20.83h.27c3.05-4.18,6.37-7.8,9.96-10.84,3.59-3.04,7.54-5.47,11.84-7.28,4.31-1.81,8.88-3.14,13.73-3.99,4.84-.86,9.87-1.28,15.07-1.28,8.97,0,16.87,1.1,23.69,3.28,6.82,2.19,12.56,5.61,17.23,10.27,4.66,4.66,8.21,10.61,10.63,17.83,2.42,7.23,3.63,15.89,3.63,25.97v90.74Z"/>
      <path class="cls-1" d="M1188.69,293c-1.98,1.53-4.84,3-8.61,4.42-3.77,1.43-8.08,2.76-12.92,3.99-4.84,1.23-10.14,2.18-15.88,2.85-5.75.66-11.84,1-18.31,1-15.26,0-28.36-1.71-39.3-5.14-10.95-3.42-19.88-8.32-26.79-14.7-6.91-6.37-12.03-14.41-15.35-24.11-3.32-9.7-4.98-20.92-4.98-33.67,0-11.6,1.79-22.07,5.38-31.39,3.59-9.32,8.7-17.21,15.34-23.68,6.64-6.46,14.85-11.37,24.63-14.7,9.78-3.33,20.86-4.99,33.25-4.99,13.82,0,25.44,1.9,34.86,5.71,9.42,3.81,17,9.04,22.75,15.69,5.74,6.66,9.87,14.55,12.38,23.68,2.51,9.13,3.77,18.93,3.77,29.39v11.41h-109.03c1.08,5.71,2.73,10.56,4.98,14.55,2.24,3.99,5.34,7.37,9.29,10.13,3.95,2.76,8.7,4.76,14.27,5.99,5.56,1.24,12.11,1.85,19.65,1.85,5.92,0,11.31-.29,16.15-.86,4.84-.57,9.38-1.33,13.59-2.28,4.21-.95,8.03-2.09,11.44-3.42,3.41-1.33,6.55-2.76,9.42-4.28v32.53ZM1156.39,214.24c.36-4.18-.05-8.08-1.21-11.7-1.17-3.61-3.01-6.66-5.52-9.13-2.52-2.47-5.79-4.42-9.83-5.85-4.04-1.43-8.75-2.14-14.13-2.14s-10.1.57-14.13,1.71c-4.04,1.14-7.58,2.95-10.63,5.42-3.05,2.47-5.48,5.47-7.27,8.99-1.8,3.52-3.05,7.75-3.77,12.7h66.49Z"/>
      <path class="cls-1" d="M1326.25,87.83h41.73v214.01h-40.65v-21.97h-.54c-2.33,3.62-5.16,6.95-8.48,9.99-3.32,3.04-7.13,5.61-11.44,7.7-4.31,2.1-9.15,3.76-14.54,4.99-5.38,1.23-11.31,1.85-17.77,1.85-10.77,0-20.32-1.62-28.67-4.85-8.35-3.23-15.3-7.99-20.86-14.27-5.57-6.28-9.83-14.03-12.79-23.26-2.96-9.23-4.44-19.83-4.44-31.82s1.48-22.73,4.44-32.24c2.96-9.51,7.4-17.55,13.33-24.11,5.92-6.56,13.23-11.56,21.94-14.98,8.7-3.42,18.89-5.14,30.55-5.14,6.1,0,11.62.57,16.56,1.71,4.94,1.14,9.33,2.71,13.19,4.71,3.86,2,7.31,4.38,10.36,7.13,3.05,2.76,5.56,5.66,7.54,8.7h.54v-88.17ZM1272.55,190.98c-4.58,1.81-8.35,4.47-11.31,7.99-2.96,3.52-5.21,7.85-6.73,12.98-1.53,5.14-2.29,11.13-2.29,17.98s.81,12.51,2.42,17.55c1.61,5.04,4.04,9.23,7.27,12.56,3.23,3.33,7.18,5.81,11.84,7.42,4.67,1.62,9.96,2.43,15.88,2.43s11.39-.9,15.88-2.71c4.48-1.81,8.3-4.42,11.44-7.85,3.14-3.42,5.47-7.7,7-12.84,1.52-5.14,2.29-10.94,2.29-17.41,0-6.09-.77-11.65-2.29-16.69-1.53-5.04-3.9-9.32-7.13-12.84-3.23-3.52-7.13-6.28-11.71-8.28-4.58-2-9.92-3-16.02-3-6.46,0-11.98.9-16.56,2.71Z"/>
      <path class="cls-1" d="M1390.86,252.19c2.33,1.52,5.43,3.04,9.29,4.57,3.86,1.53,8.25,2.9,13.19,4.14,4.94,1.24,10.23,2.28,15.88,3.14,5.65.86,11.62,1.28,17.9,1.28,5.92,0,11.04-.43,15.34-1.28,4.31-.86,7.81-2.18,10.5-3.99,2.69-1.81,4.71-3.99,6.06-6.56,1.35-2.57,2.02-5.47,2.02-8.7,0-3.61-.63-6.61-1.88-8.99-1.26-2.38-3.28-4.52-6.06-6.42-2.79-1.9-6.37-3.66-10.77-5.28-4.4-1.61-9.74-3.38-16.02-5.28l-7.54-2.28c-8.98-2.85-16.6-6.18-22.88-9.99-6.28-3.8-11.44-8.18-15.48-13.13-4.04-4.94-6.96-10.51-8.75-16.69-1.8-6.18-2.69-12.98-2.69-20.4,0-9.13,1.7-17.26,5.12-24.4,3.41-7.13,8.34-13.17,14.81-18.12,6.46-4.94,14.36-8.75,23.69-11.41,9.33-2.66,19.83-3.99,31.5-3.99,13.46,0,24.59.86,33.38,2.57,8.79,1.71,16.15,3.81,22.07,6.28v40.52c-4.13-1.52-8.39-2.8-12.79-3.85-4.4-1.04-8.88-1.9-13.46-2.57-4.58-.66-9.11-1.19-13.59-1.57-4.49-.38-8.61-.57-12.38-.57-10.59,0-18.44,1.43-23.56,4.28-5.11,2.85-7.67,7.23-7.67,13.13,0,3.24.76,5.9,2.29,7.99,1.52,2.1,3.9,4.04,7.13,5.85,3.23,1.81,7.49,3.66,12.79,5.56,5.29,1.9,11.62,4.19,18.98,6.85l8.35,2.57c9.33,3.04,17,6.66,23.02,10.84,6.01,4.19,10.72,8.7,14.13,13.55,3.41,4.85,5.74,10.09,7,15.69,1.25,5.61,1.88,11.66,1.88,18.12,0,9.89-1.88,18.65-5.65,26.25-3.77,7.61-9.06,14.08-15.88,19.4-6.82,5.33-15.12,9.37-24.9,12.13-9.78,2.76-20.77,4.14-32.98,4.14-12.92,0-24.41-1.1-34.46-3.28-10.05-2.18-19.02-5.09-26.92-8.7v-41.38Z"/>
      <path class="cls-1" d="M1696.94,301.84h-41.46v-75.33c0-7.04-.54-12.89-1.61-17.55-1.08-4.66-2.74-8.42-4.98-11.27-2.25-2.85-5.25-4.9-9.02-6.14-3.77-1.23-8.44-1.85-14-1.85-6.1,0-11.35.95-15.75,2.85-4.4,1.9-8.03,4.71-10.9,8.42-2.87,3.71-4.98,8.37-6.33,13.98-1.35,5.61-2.02,12.13-2.02,19.55v67.34h-42V87.83h42v89.32h.27c3.05-3.99,6.37-7.56,9.96-10.7,3.59-3.14,7.54-5.61,11.84-7.42,4.31-1.81,8.88-3.14,13.73-3.99,4.84-.86,9.87-1.28,15.07-1.28,9.15,0,17.18,1.1,24.09,3.28,6.91,2.19,12.69,5.61,17.36,10.27,4.66,4.66,8.12,10.61,10.36,17.83,2.24,7.23,3.37,15.89,3.37,25.97v90.74Z"/>
      <path class="cls-1" d="M1758.58,300.7c-10.05-3.04-18.53-7.7-25.44-13.98-6.91-6.28-12.16-14.17-15.75-23.68-3.59-9.51-5.38-20.83-5.38-33.96s1.88-23.59,5.65-33.1c3.77-9.51,9.15-17.41,16.15-23.68,7-6.28,15.52-11.08,25.57-14.41,10.05-3.33,21.27-4.99,33.65-4.99,13.1,0,24.67,1.57,34.73,4.71,10.05,3.14,18.53,7.9,25.44,14.27,6.91,6.38,12.2,14.32,15.88,23.83,3.68,9.52,5.52,20.64,5.52,33.39s-1.84,23.31-5.52,32.82c-3.68,9.51-8.93,17.46-15.75,23.83-6.82,6.38-15.35,11.23-25.57,14.55-10.23,3.33-21.63,4.99-34.19,4.99-13.28,0-24.95-1.53-35-4.57ZM1809.59,268.03c4.58-1.61,8.43-4.14,11.58-7.56,3.14-3.42,5.52-7.7,7.13-12.84,1.61-5.14,2.42-11.32,2.42-18.55s-.72-13.46-2.15-18.69c-1.44-5.23-3.73-9.51-6.86-12.84-3.14-3.33-7.04-5.8-11.71-7.42-4.67-1.61-10.23-2.43-16.69-2.43-6.1,0-11.49.81-16.15,2.43-4.67,1.62-8.57,4.09-11.71,7.42-3.14,3.33-5.52,7.66-7.13,12.98-1.61,5.33-2.42,11.51-2.42,18.55s.9,13.18,2.69,18.41c1.79,5.23,4.31,9.56,7.54,12.98,3.23,3.42,7.13,5.95,11.71,7.56,4.58,1.62,9.73,2.43,15.48,2.43,6.28,0,11.71-.81,16.29-2.43Z"/>
      <path class="cls-1" d="M1989.56,192.27h-42.8v50.22c0,4.19.36,7.9,1.08,11.13.72,3.24,1.97,5.9,3.77,7.99,1.79,2.1,4.31,3.62,7.54,4.57,3.23.95,7.27,1.43,12.11,1.43,2.87,0,5.96-.29,9.29-.86,3.32-.57,6.41-1.52,9.29-2.85v35.95c-3.23,1.14-7.58,2.33-13.06,3.57-5.48,1.24-11.62,1.86-18.44,1.86-9.69,0-17.9-1.1-24.63-3.28-6.73-2.18-12.25-5.32-16.56-9.42-4.31-4.09-7.4-9.18-9.29-15.27-1.88-6.09-2.83-13.03-2.83-20.83v-64.2h-27.46v-35.95h27.46v-45.09h41.73v45.09h42.8v35.95Z"/>
    </g>
  </g>
</svg>